<svg width="16" height="20" viewBox="0 0 16 20" fill="none" xmlns="http://www.w3.org/2000/svg">
<path d="M15.63 1.65006C15.5138 1.55609 15.3781 1.48934 15.2327 1.45473C15.0873 1.42012 14.9361 1.41852 14.79 1.45006C13.7214 1.67401 12.6183 1.67686 11.5486 1.45845C10.4789 1.24003 9.46525 0.804978 8.57001 0.180064C8.40261 0.063937 8.20374 0.00170898 8.00001 0.00170898C7.79627 0.00170898 7.5974 0.063937 7.43001 0.180064C6.53476 0.804978 5.52108 1.24003 4.45137 1.45845C3.38166 1.67686 2.27857 1.67401 1.21001 1.45006C1.06394 1.41852 0.912671 1.42012 0.767306 1.45473C0.621942 1.48934 0.486181 1.55609 0.370006 1.65006C0.253985 1.74418 0.160527 1.8631 0.0964981 1.99808C0.0324695 2.13306 -0.00050219 2.28067 5.78149e-06 2.43006V9.88006C-0.000883255 11.3138 0.340779 12.727 0.996541 14.002C1.6523 15.277 2.60319 16.3769 3.77001 17.2101L7.42001 19.8101C7.58937 19.9306 7.7921 19.9954 8.00001 19.9954C8.20791 19.9954 8.41064 19.9306 8.58001 19.8101L12.23 17.2101C13.3968 16.3769 14.3477 15.277 15.0035 14.002C15.6592 12.727 16.0009 11.3138 16 9.88006V2.43006C16.0005 2.28067 15.9675 2.13306 15.9035 1.99808C15.8395 1.8631 15.746 1.74418 15.63 1.65006ZM14 9.88006C14.0008 10.9948 13.7353 12.0936 13.2257 13.0851C12.716 14.0765 11.977 14.9319 11.07 15.5801L8.00001 17.7701L4.93001 15.5801C4.02304 14.9319 3.28399 14.0765 2.77435 13.0851C2.26472 12.0936 1.99924 10.9948 2.00001 9.88006V3.58006C4.09643 3.7595 6.19605 3.27309 8.00001 2.19006C9.80397 3.27309 11.9036 3.7595 14 3.58006V9.88006ZM9.54001 7.59006L6.85001 10.2901L5.96001 9.39006C5.7717 9.20176 5.51631 9.09597 5.25001 9.09597C4.9837 9.09597 4.72831 9.20176 4.54001 9.39006C4.3517 9.57837 4.24591 9.83376 4.24591 10.1001C4.24591 10.3664 4.3517 10.6218 4.54001 10.8101L6.14001 12.4101C6.23297 12.5038 6.34357 12.5782 6.46543 12.629C6.58729 12.6797 6.71799 12.7059 6.85001 12.7059C6.98202 12.7059 7.11272 12.6797 7.23458 12.629C7.35644 12.5782 7.46704 12.5038 7.56001 12.4101L11 9.00006C11.1883 8.81176 11.2941 8.55637 11.2941 8.29006C11.2941 8.02376 11.1883 7.76837 11 7.58006C10.8117 7.39176 10.5563 7.28597 10.29 7.28597C10.0237 7.28597 9.76831 7.39176 9.58001 7.58006L9.54001 7.59006Z" fill="white"/>
</svg>
