<svg width="10" height="15" viewBox="0 0 10 15" fill="none" xmlns="http://www.w3.org/2000/svg">
<path d="M4.05334 7.00001L8.77334 2.28001C9.02167 2.0302 9.16106 1.69226 9.16106 1.34001C9.16106 0.987765 9.02167 0.64983 8.77334 0.400013C8.64939 0.275042 8.50192 0.175849 8.33944 0.108157C8.17696 0.0404659 8.00269 0.00561523 7.82667 0.00561523C7.65066 0.00561523 7.47638 0.0404659 7.3139 0.108157C7.15142 0.175849 7.00396 0.275042 6.88001 0.400013L1.22667 6.05335C1.1017 6.1773 1.00251 6.32476 0.934818 6.48724C0.867127 6.64972 0.832275 6.824 0.832275 7.00001C0.832275 7.17603 0.867127 7.3503 0.934818 7.51278C1.00251 7.67526 1.1017 7.82273 1.22667 7.94668L6.88001 13.6667C7.00459 13.7903 7.15235 13.888 7.3148 13.9544C7.47725 14.0207 7.6512 14.0544 7.82667 14.0533C8.00215 14.0544 8.1761 14.0207 8.33855 13.9544C8.501 13.888 8.64875 13.7903 8.77334 13.6667C9.02167 13.4169 9.16106 13.0789 9.16106 12.7267C9.16106 12.3744 9.02167 12.0365 8.77334 11.7867L4.05334 7.00001Z" fill="white"/>
</svg>
