<svg width="12" height="12" viewBox="0 0 12 12" fill="none" xmlns="http://www.w3.org/2000/svg">
<path d="M10.8183 2.53929C10.7129 2.46041 10.5929 2.40312 10.4653 2.37072L3.57546 0.780072C3.44699 0.75041 3.31392 0.746344 3.18387 0.768107C3.05382 0.78987 2.92933 0.837036 2.81751 0.906911C2.59167 1.04803 2.43114 1.27308 2.37124 1.53256C2.34157 1.66104 2.33751 1.7941 2.35927 1.92415C2.38103 2.0542 2.4282 2.17869 2.49808 2.29052C2.63919 2.51635 2.86425 2.67688 3.12372 2.73679L7.66571 3.77813L1.22903 7.80022C1.00411 7.94076 0.84424 8.16489 0.784579 8.42331C0.724919 8.68173 0.770358 8.95327 0.910901 9.17818C1.05144 9.4031 1.27558 9.56297 1.534 9.62263C1.79242 9.6823 2.06395 9.63686 2.28887 9.49631L8.72555 5.47423L7.67043 10.013C7.64021 10.1415 7.63572 10.2748 7.65725 10.405C7.67877 10.5353 7.72586 10.6599 7.79582 10.7719C7.86578 10.8839 7.95721 10.9808 8.06484 11.0573C8.17247 11.1337 8.29416 11.1881 8.42291 11.2173C8.55142 11.2475 8.68464 11.252 8.81488 11.2304C8.94513 11.2089 9.06982 11.1618 9.18178 11.0919C9.29373 11.0219 9.39072 10.9305 9.46716 10.8229C9.5436 10.7152 9.59797 10.5935 9.62714 10.4648L11.2178 3.57494C11.2446 3.44605 11.2457 3.31313 11.221 3.18381C11.1768 2.92434 11.0321 2.69275 10.8183 2.53929Z" fill="white"/>
</svg>
