<svg width="16" height="20" viewBox="0 0 16 20" fill="none" xmlns="http://www.w3.org/2000/svg">
<path d="M14.3 6.59L15.21 5.69C15.3983 5.5017 15.5041 5.2463 15.5041 4.98C15.5041 4.7137 15.3983 4.4583 15.21 4.27C15.0217 4.0817 14.7663 3.97591 14.5 3.97591C14.2337 3.97591 13.9783 4.0817 13.79 4.27L12.89 5.18C11.4886 4.09585 9.76685 3.50764 7.995 3.50764C6.22316 3.50764 4.50145 4.09585 3.1 5.18L2.19 4.26C2.00037 4.0717 1.74371 3.96644 1.47647 3.96737C1.20923 3.96831 0.953307 4.07537 0.765003 4.265C0.576699 4.45463 0.471439 4.7113 0.472376 4.97854C0.473314 5.24578 0.580374 5.5017 0.770003 5.69L1.69 6.6C0.593019 7.99755 -0.00220605 9.72334 3.3408e-06 11.5C-0.00326234 12.7754 0.298467 14.0331 0.880027 15.1683C1.46159 16.3034 2.30612 17.283 3.34319 18.0254C4.38027 18.7679 5.57982 19.2516 6.84181 19.4362C8.1038 19.6208 9.39165 19.5011 10.598 19.0869C11.8043 18.6727 12.894 17.9761 13.7764 17.0552C14.6588 16.1342 15.3082 15.0157 15.6705 13.7928C16.0328 12.5699 16.0974 11.2781 15.859 10.0251C15.6206 8.77219 15.0861 7.5944 14.3 6.59ZM8 17.5C6.81332 17.5 5.65328 17.1481 4.66658 16.4888C3.67989 15.8295 2.91085 14.8925 2.45673 13.7961C2.0026 12.6997 1.88378 11.4933 2.11529 10.3295C2.3468 9.16557 2.91825 8.09647 3.75736 7.25736C4.59648 6.41824 5.66558 5.8468 6.82946 5.61529C7.99335 5.38378 9.19975 5.5026 10.2961 5.95672C11.3925 6.41085 12.3295 7.17988 12.9888 8.16658C13.6481 9.15327 14 10.3133 14 11.5C14 13.0913 13.3679 14.6174 12.2426 15.7426C11.1174 16.8679 9.5913 17.5 8 17.5ZM6 2.5H10C10.2652 2.5 10.5196 2.39464 10.7071 2.20711C10.8946 2.01957 11 1.76522 11 1.5C11 1.23478 10.8946 0.98043 10.7071 0.792893C10.5196 0.605357 10.2652 0.5 10 0.5H6C5.73479 0.5 5.48043 0.605357 5.2929 0.792893C5.10536 0.98043 5 1.23478 5 1.5C5 1.76522 5.10536 2.01957 5.2929 2.20711C5.48043 2.39464 5.73479 2.5 6 2.5ZM9 8.5C9 8.23478 8.89465 7.98043 8.70711 7.79289C8.51957 7.60536 8.26522 7.5 8 7.5C7.73479 7.5 7.48043 7.60536 7.2929 7.79289C7.10536 7.98043 7 8.23478 7 8.5V10.39C6.77357 10.5925 6.61397 10.859 6.54232 11.1542C6.47067 11.4495 6.49035 11.7595 6.59874 12.0433C6.70714 12.3271 6.89915 12.5712 7.14937 12.7435C7.39959 12.9158 7.69622 13.008 8 13.008C8.30379 13.008 8.60042 12.9158 8.85064 12.7435C9.10085 12.5712 9.29286 12.3271 9.40126 12.0433C9.50966 11.7595 9.52934 11.4495 9.45768 11.1542C9.38603 10.859 9.22643 10.5925 9 10.39V8.5Z" fill="white"/>
</svg>

