<svg width="14" height="12" viewBox="0 0 14 12" fill="none" xmlns="http://www.w3.org/2000/svg">
<path d="M8.92671 4.98699L6.92671 3.82699C6.74902 3.72201 6.54642 3.66663 6.34004 3.66663C6.13366 3.66663 5.93106 3.72201 5.75337 3.82699C5.57433 3.92792 5.4259 4.07539 5.3238 4.25377C5.2217 4.43215 5.16972 4.63482 5.17337 4.84033V7.16033C5.16972 7.36583 5.2217 7.5685 5.3238 7.74688C5.4259 7.92526 5.57433 8.07273 5.75337 8.17366C5.93106 8.27864 6.13366 8.33402 6.34004 8.33402C6.54642 8.33402 6.74902 8.27864 6.92671 8.17366L8.92671 7.01366C9.09769 6.90872 9.2389 6.76169 9.33687 6.58661C9.43483 6.41154 9.48627 6.21428 9.48627 6.01366C9.48627 5.81304 9.43483 5.61578 9.33687 5.4407C9.2389 5.26563 9.09769 5.1186 8.92671 5.01366V4.98699ZM6.49337 6.88033V5.12033L8.01337 6.00033L6.49337 6.88033ZM11.6667 0.666992H2.33337C1.80294 0.666992 1.29423 0.877706 0.91916 1.25278C0.544088 1.62785 0.333374 2.13656 0.333374 2.66699V9.33366C0.333374 9.86409 0.544088 10.3728 0.91916 10.7479C1.29423 11.1229 1.80294 11.3337 2.33337 11.3337H11.6667C12.1971 11.3337 12.7058 11.1229 13.0809 10.7479C13.456 10.3728 13.6667 9.86409 13.6667 9.33366V2.66699C13.6667 2.13656 13.456 1.62785 13.0809 1.25278C12.7058 0.877706 12.1971 0.666992 11.6667 0.666992ZM12.3334 9.33366C12.3334 9.51047 12.2631 9.68004 12.1381 9.80506C12.0131 9.93009 11.8435 10.0003 11.6667 10.0003H2.33337C2.15656 10.0003 1.98699 9.93009 1.86197 9.80506C1.73695 9.68004 1.66671 9.51047 1.66671 9.33366V2.66699C1.66671 2.49018 1.73695 2.32061 1.86197 2.19559C1.98699 2.07056 2.15656 2.00033 2.33337 2.00033H11.6667C11.8435 2.00033 12.0131 2.07056 12.1381 2.19559C12.2631 2.32061 12.3334 2.49018 12.3334 2.66699V9.33366Z" fill="white"/>
</svg>
